<?xml version="1.0" encoding="UTF-8" standalone="no"?>
<svg
   xmlns:dc="http://purl.org/dc/elements/1.1/"
   xmlns:cc="http://creativecommons.org/ns#"
   xmlns:rdf="http://www.w3.org/1999/02/22-rdf-syntax-ns#"
   xmlns:svg="http://www.w3.org/2000/svg"
   xmlns="http://www.w3.org/2000/svg"
   xmlns:sodipodi="http://sodipodi.sourceforge.net/DTD/sodipodi-0.dtd"
   xmlns:inkscape="http://www.inkscape.org/namespaces/inkscape"
   width="24"
   height="24"
   viewBox="0 0 24 24"
   version="1.1"
   id="svg30"
   sodipodi:docname="baseline-delete_forever-24px.svg"
   inkscape:version="0.92.3 (2405546, 2018-03-11)">
  <metadata
     id="metadata36">
    <rdf:RDF>
      <cc:Work
         rdf:about="">
        <dc:format>image/svg+xml</dc:format>
        <dc:type
           rdf:resource="http://purl.org/dc/dcmitype/StillImage" />
      </cc:Work>
    </rdf:RDF>
  </metadata>
  <defs
     id="defs34" />
  <sodipodi:namedview
     pagecolor="#ffffff"
     bordercolor="#666666"
     borderopacity="1"
     objecttolerance="10"
     gridtolerance="10"
     guidetolerance="10"
     inkscape:pageopacity="0"
     inkscape:pageshadow="2"
     inkscape:window-width="1920"
     inkscape:window-height="1017"
     id="namedview32"
     showgrid="false"
     inkscape:zoom="35.333333"
     inkscape:cx="12"
     inkscape:cy="12"
     inkscape:window-x="-8"
     inkscape:window-y="-8"
     inkscape:window-maximized="1"
     inkscape:current-layer="svg30" />
  <path
     fill="none"
     d="M0 0h24v24H0V0z"
     id="path24" />
  <path
     d="M6 19c0 1.1.9 2 2 2h8c1.1 0 2-.9 2-2V7H6v12zm2.46-7.12l1.41-1.41L12 12.59l2.12-2.12 1.41 1.41L13.41 14l2.12 2.12-1.41 1.41L12 15.41l-2.12 2.12-1.41-1.41L10.59 14l-2.13-2.12zM15.5 4l-1-1h-5l-1 1H5v2h14V4z"
     id="path26" />
  <path
     fill="none"
     d="M0 0h24v24H0z"
     id="path28" />
  <path
     style="fill:#d40000;fill-opacity:1;stroke-width:0.02830189"
     d="M 9.1909663,16.807147 8.4906342,16.106815 9.5447039,15.052464 10.598774,13.998113 9.5377734,12.93683 8.4767732,11.875547 9.1688477,11.18304 9.8609221,10.490533 10.913581,11.536776 c 0.578962,0.575433 1.063503,1.046243 1.076758,1.046243 0.01325,0 0.495182,-0.471212 1.070949,-1.047138 l 1.046851,-1.047137 0.700684,0.700263 0.700684,0.700264 -1.054141,1.054421 -1.05414,1.054421 1.05407,1.054351 1.05407,1.054351 -0.700332,0.700332 -0.700332,0.700332 -1.054351,-1.05407 L 12,15.39934 l -1.054351,1.054069 -1.0543507,1.05407 z"
     id="path38"
     inkscape:connector-curvature="0" />
  <path
     style="fill:#d40000;fill-opacity:1;stroke-width:0.02830189"
     d="m 9.2051157,16.792998 -0.6861811,-0.686182 1.0540704,-1.054351 1.05407,-1.054352 -1.0609974,-1.061281 -1.060998,-1.061281 0.6767993,-0.67724 0.6767992,-0.67724 1.0443929,1.023898 c 0.574416,0.563145 1.060208,1.02756 1.079538,1.032034 0.01933,0.0045 0.505561,-0.456193 1.080513,-1.023705 l 1.045369,-1.03184 0.686359,0.683904 0.686359,0.683904 -1.054142,1.054424 -1.054142,1.054423 1.05407,1.054352 1.05407,1.054351 -0.686181,0.686182 -0.686181,0.68618 -1.054351,-1.05407 L 12,15.371038 l -1.054352,1.05407 -1.0543512,1.05407 z"
     id="path40"
     inkscape:connector-curvature="0" />
</svg>
